<svg width="32" height="32" viewBox="0 0 32 32" xmlns="http://www.w3.org/2000/svg">
  <defs>
    <radialGradient id="swirl1" cx="0.3" cy="0.3" r="0.8">
      <stop offset="0%" stop-color="#0f172a"/>
      <stop offset="70%" stop-color="#0f4c75"/>
      <stop offset="100%" stop-color="#1e293b"/>
    </radialGradient>
    <radialGradient id="swirl2" cx="0.7" cy="0.7" r="0.6">
      <stop offset="0%" stop-color="#0c1426"/>
      <stop offset="60%" stop-color="#0f4c75"/>
      <stop offset="100%" stop-color="#1e293b"/>
    </radialGradient>
    <radialGradient id="swirl3" cx="0.2" cy="0.8" r="0.5">
      <stop offset="0%" stop-color="#0f172a"/>
      <stop offset="80%" stop-color="#0f4c75"/>
      <stop offset="100%" stop-color="#1e293b"/>
    </radialGradient>
  </defs>
  
  <!-- Background -->
  <rect width="32" height="32" fill="#0f172a"/>
  
  <!-- Swirly patterns -->
  <path d="M8 8 Q16 4 24 8 Q28 16 24 24 Q16 28 8 24 Q4 16 8 8" fill="url(#swirl1)" opacity="0.8"/>
  <path d="M12 6 Q20 2 26 10 Q30 20 22 26 Q14 30 6 22 Q2 12 12 6" fill="url(#swirl2)" opacity="0.6"/>
  <path d="M6 18 Q14 14 22 20 Q26 28 18 30 Q10 32 4 24 Q0 18 6 18" fill="url(#swirl3)" opacity="0.7"/>
  
  <!-- Subtle swirl details -->
  <path d="M16 4 Q20 8 18 12 Q14 16 10 12 Q8 8 12 4 Q16 4 16 4" fill="#0f4c75" opacity="0.4"/>
  <path d="M24 16 Q28 20 26 24 Q22 28 18 24 Q16 20 20 16 Q24 16 24 16" fill="#1e293b" opacity="0.5"/>
  <path d="M8 20 Q12 24 10 28 Q6 32 2 28 Q0 24 4 20 Q8 20 8 20" fill="#0f4c75" opacity="0.3"/>
</svg>
