<svg width="24" height="25" viewBox="0 0 24 25" fill="none" xmlns="http://www.w3.org/2000/svg">
<path d="M16 22.5536C19.3137 22.5536 22 19.8673 22 16.5536C22 13.2399 19.3137 10.5536 16 10.5536C12.6863 10.5536 10 13.2399 10 16.5536C10 19.8673 12.6863 22.5536 16 22.5536Z" fill="#3887FE" stroke="#3887FE" stroke-width="2" stroke-linecap="round" stroke-linejoin="round"/>
<path d="M16 14.5536V16.7536L17.6 17.7536" stroke="#F4FAFE" stroke-linecap="round" stroke-linejoin="round"/>
<path d="M16 2.55359V6.55359" stroke="#3887FE" stroke-width="2" stroke-linecap="round" stroke-linejoin="round"/>
<path d="M21 8.05359V6.55359C21 6.02316 20.7893 5.51445 20.4142 5.13938C20.0391 4.7643 19.5304 4.55359 19 4.55359H5C4.46957 4.55359 3.96086 4.7643 3.58579 5.13938C3.21071 5.51445 3 6.02316 3 6.55359V20.5536C3 21.084 3.21071 21.5927 3.58579 21.9678C3.96086 22.3429 4.46957 22.5536 5 22.5536H8.5" stroke="#3887FE" stroke-width="2" stroke-linecap="round" stroke-linejoin="round"/>
<path d="M3 10.5536H8" stroke="#3887FE" stroke-width="2" stroke-linecap="round" stroke-linejoin="round"/>
<path d="M8 2.55359V6.55359" stroke="#3887FE" stroke-width="2" stroke-linecap="round" stroke-linejoin="round"/>
</svg>
