<svg width="24" height="25" viewBox="0 0 24 25" fill="none" xmlns="http://www.w3.org/2000/svg">
<path d="M20 13.0535C20 18.0536 16.5 20.5536 12.34 22.0036C12.1222 22.0774 11.8855 22.0738 11.67 21.9936C7.5 20.5536 4 18.0536 4 13.0535V6.05355C4 5.78833 4.10536 5.53398 4.29289 5.34644C4.48043 5.15891 4.73478 5.05355 5 5.05355C7 5.05355 9.5 3.85355 11.24 2.33355C11.4519 2.15255 11.7214 2.0531 12 2.0531C12.2786 2.0531 12.5481 2.15255 12.76 2.33355C14.51 3.86355 17 5.05355 19 5.05355C19.2652 5.05355 19.5196 5.15891 19.7071 5.34644C19.8946 5.53398 20 5.78833 20 6.05355V13.0535Z" fill="#3887FE" stroke="#3887FE" stroke-width="2" stroke-linecap="round" stroke-linejoin="round"/>
</svg>
